<svg width="38" height="40" viewBox="0 0 38 40" fill="none" xmlns="http://www.w3.org/2000/svg">
<path fill-rule="evenodd" clip-rule="evenodd" d="M11.5849 2.24996C12.1682 1.02079 13.4265 0.166626 14.8807 0.166626H23.214C24.6682 0.166626 25.9245 1.02079 26.5099 2.24996C27.9328 2.26246 29.0432 2.32704 30.0349 2.71454C31.2187 3.17761 32.2482 3.96457 33.0057 4.98538C33.7703 6.01454 34.1307 7.33329 34.6224 9.14788L36.1682 14.8187L36.7515 16.5708L36.8015 16.6333C38.6786 19.0375 37.7849 22.6125 35.9974 29.7604C34.8599 34.3083 34.2932 36.5812 32.5974 37.9062C30.9015 39.2291 28.5578 39.2291 23.8703 39.2291H14.2245C9.53695 39.2291 7.1932 39.2291 5.49737 37.9062C3.80154 36.5812 3.23279 34.3083 2.09737 29.7604C0.309871 22.6125 -0.58388 19.0375 1.2932 16.6333L1.3432 16.5708L1.92654 14.8187L3.47237 9.14788C3.96612 7.33329 4.32654 6.01246 5.08904 4.98329C5.8468 3.96325 6.87632 3.17704 8.05987 2.71454C9.05154 2.32704 10.1599 2.26038 11.5849 2.24996ZM11.589 5.37913C10.2099 5.39371 9.6557 5.44579 9.19737 5.62496C8.5598 5.87429 8.00531 6.2981 7.59737 6.84788C7.2307 7.34163 7.01404 8.03121 6.40987 10.2541L5.22237 14.6062C7.34737 14.2291 10.2515 14.2291 14.2224 14.2291H23.8703C27.8432 14.2291 30.7453 14.2291 32.8703 14.6041L31.6849 10.252C31.0807 8.02913 30.864 7.33954 30.4974 6.84579C30.0894 6.29602 29.5349 5.87221 28.8974 5.62288C28.439 5.44371 27.8849 5.39163 26.5057 5.37704C26.2099 5.99964 25.7437 6.52563 25.161 6.894C24.5784 7.26237 23.9033 7.45803 23.214 7.45829H14.8807C14.1916 7.45822 13.5167 7.26287 12.9341 6.89488C12.3515 6.52689 11.8851 6.00133 11.589 5.37913Z" fill="#342E37"/>
</svg>
