<svg width="40" height="40" viewBox="0 0 68 59" fill="none" xmlns="http://www.w3.org/2000/svg">
<path d="M6.68293 58.88C2.48293 58.88 0.38293 57.47 0.38293 54.65C0.38293 53.39 0.74293 52.37 1.46293 51.59C2.30293 50.69 3.26293 50.24 4.34293 50.24C5.12293 50.24 5.51293 50.45 5.51293 50.87C5.51293 51.23 5.42293 51.41 5.24293 51.41C5.18293 51.41 4.97293 51.35 4.61293 51.23C4.43293 51.17 4.22293 51.14 3.98293 51.14C3.32293 51.14 2.75293 51.47 2.27293 52.13C1.79293 52.67 1.55293 53.33 1.55293 54.11C1.55293 55.31 2.21293 56.27 3.53293 56.99C4.73293 57.53 5.96293 57.8 7.22293 57.8C11.8429 57.8 16.0729 55.97 19.9129 52.31C21.4129 50.93 22.8829 49.22 24.3229 47.18C25.8229 45.14 27.2929 42.77 28.7329 40.07C28.7329 40.01 29.2429 38.9 30.2629 36.74C31.3429 34.58 32.9029 31.4 34.9429 27.2C39.9829 16.88 45.6829 9.5 52.0429 5.06C48.3829 3.68 43.8229 2.99 38.3629 2.99C35.2429 2.99 32.3029 3.26 29.5429 3.8C26.7829 4.28 24.1729 5.03 21.7129 6.05C15.8929 8.39 11.5729 11.9 8.75293 16.58C7.01293 19.52 6.14293 22.43 6.14293 25.31C6.14293 28.37 7.10293 30.92 9.02293 32.96C10.9429 35.06 13.4329 36.11 16.4929 36.11C19.9129 36.11 22.9429 34.88 25.5829 32.42C28.2229 29.9 29.5429 26.96 29.5429 23.6C29.5429 21.26 28.9129 19.34 27.6529 17.84C26.3329 16.28 24.5029 15.5 22.1629 15.5C20.4229 15.5 18.8629 16.04 17.4829 17.12C16.1029 18.32 15.4129 19.82 15.4129 21.62C15.4129 23.06 16.1929 23.78 17.7529 23.78C17.8729 23.78 17.9629 23.69 18.0229 23.51C18.2029 23.33 18.3529 23.24 18.4729 23.24C18.5929 23.3 18.6529 23.39 18.6529 23.51C18.6529 24.11 18.3229 24.41 17.6629 24.41C15.6229 24.41 14.6029 23.45 14.6029 21.53C14.6029 19.61 15.4729 17.93 17.2129 16.49C18.8929 15.11 20.6929 14.42 22.6129 14.42C25.1929 14.42 27.2929 15.26 28.9129 16.94C30.5929 18.62 31.4329 20.75 31.4329 23.33C31.4329 27.29 29.8729 30.62 26.7529 33.32C23.8129 35.84 20.3329 37.1 16.3129 37.1C12.5329 37.1 9.44293 35.99 7.04293 33.77C4.46293 31.37 3.17293 28.4 3.17293 24.86C3.17293 22.34 3.80293 19.88 5.06293 17.48C7.82293 12.02 12.6829 7.94 19.6429 5.24C25.3429 3.02 31.8229 1.91 39.0829 1.91C44.4829 1.91 49.3429 2.6 53.6629 3.98C57.7429 1.58 61.4329 0.379997 64.7329 0.379997C65.2129 0.379997 65.4529 0.439996 65.4529 0.559995C65.4529 0.739996 65.3629 0.829997 65.1829 0.829997C64.9429 0.829997 64.5829 0.859996 64.1029 0.919996C63.6829 0.919996 63.2029 0.949997 62.6629 1.01C59.9029 1.37 57.2929 2.51 54.8329 4.43C61.2529 6.89 64.4629 10.46 64.4629 15.14C64.4629 19.52 62.2129 23.15 57.7129 26.03C54.1129 28.31 49.8229 29.72 44.8429 30.26C45.5029 32.06 46.0129 34.46 46.3729 37.46C46.5529 39.08 46.7029 40.7 46.8229 42.32C46.9429 43.94 47.1229 45.56 47.3629 47.18C48.0229 51.92 49.1929 54.59 50.8729 55.19C51.6529 55.49 52.3729 55.64 53.0329 55.64C55.6729 55.64 58.5229 53.87 61.5829 50.33C64.2229 47.15 65.9329 44.09 66.7129 41.15L66.8929 41.06L67.3429 41.24V41.42C66.2029 44.84 64.1929 48.23 61.3129 51.59C57.8929 55.43 54.6229 57.35 51.5029 57.35C50.1829 57.35 48.9529 56.93 47.8129 56.09C45.7129 54.71 44.3029 52.31 43.5829 48.89C43.4029 47.87 43.2529 46.58 43.1329 45.02C43.0129 43.46 42.9229 41.57 42.8629 39.35C42.8629 35.21 42.6229 32.27 42.1429 30.53H40.3429C39.9229 30.53 39.5029 30.53 39.0829 30.53C38.7229 30.47 38.3929 30.41 38.0929 30.35C34.8529 38.15 31.6729 43.97 28.5529 47.81C24.0529 53.21 18.5329 56.66 11.9929 58.16C9.95293 58.64 8.18293 58.88 6.68293 58.88ZM44.3929 29.18C48.5329 28.46 52.1329 27.02 55.1929 24.86C58.7929 22.16 60.5929 18.89 60.5929 15.05C60.5929 10.91 58.1929 7.76 53.3929 5.6C51.1129 7.58 48.8629 10.22 46.6429 13.52C44.4829 16.82 42.3529 20.78 40.2529 25.4C42.1129 26.12 43.4929 27.38 44.3929 29.18ZM40.4329 29.45H41.0629L41.8729 29.36C41.3329 27.98 40.6429 27.02 39.8029 26.48C39.6229 26.78 39.4429 27.17 39.2629 27.65C39.0829 28.13 38.8429 28.7 38.5429 29.36C38.8429 29.36 39.1429 29.39 39.4429 29.45C39.8029 29.45 40.1329 29.45 40.4329 29.45Z" fill="#77CF7C"/>
</svg>
