<svg width="36" height="37" viewBox="0 0 36 37" fill="none" xmlns="http://www.w3.org/2000/svg">
<path d="M13.5446 0C17.1361 0 20.5804 1.42671 23.12 3.96626C25.6596 6.50582 27.0863 9.95019 27.0863 13.5417C27.0863 16.8958 25.8571 19.9792 23.8363 22.3542L24.3988 22.9167H26.0446L36.4613 33.3333L33.3363 36.4583L22.9196 26.0417V24.3958L22.3571 23.8333C19.8999 25.9308 16.7752 27.0831 13.5446 27.0833C9.95312 27.0833 6.50875 25.6566 3.96919 23.1171C1.42964 20.5775 0.00292969 17.1331 0.00292969 13.5417C0.00292969 9.95019 1.42964 6.50582 3.96919 3.96626C6.50875 1.42671 9.95312 0 13.5446 0ZM13.5446 4.16667C8.33626 4.16667 4.1696 8.33333 4.1696 13.5417C4.1696 18.75 8.33626 22.9167 13.5446 22.9167C18.7529 22.9167 22.9196 18.75 22.9196 13.5417C22.9196 8.33333 18.7529 4.16667 13.5446 4.16667Z" fill="#77CF7C"/>
</svg>
