<svg width="25" height="25" viewBox="0 0 34 34" fill="none" xmlns="http://www.w3.org/2000/svg">
<path d="M17.0026 0.333252C19.2127 0.333252 21.3324 1.21123 22.8952 2.77403C24.458 4.33683 25.3359 6.45645 25.3359 8.66659C25.3359 10.8767 24.458 12.9963 22.8952 14.5591C21.3324 16.1219 19.2127 16.9999 17.0026 16.9999C14.7925 16.9999 12.6729 16.1219 11.11 14.5591C9.54725 12.9963 8.66927 10.8767 8.66927 8.66659C8.66927 6.45645 9.54725 4.33683 11.11 2.77403C12.6729 1.21123 14.7925 0.333252 17.0026 0.333252ZM17.0026 21.1666C26.2109 21.1666 33.6693 24.8958 33.6693 29.4999V33.6666H0.335938V29.4999C0.335938 24.8958 7.79427 21.1666 17.0026 21.1666Z" fill="#342E37"/>
</svg>
