<svg width="26" height="26" viewBox="0 0 26 26" fill="none" xmlns="http://www.w3.org/2000/svg">
<path d="M12.9375 20.5C13.375 20.5 13.745 20.3487 14.0475 20.0462C14.35 19.7437 14.5008 19.3742 14.5 18.9375C14.5 18.5 14.3492 18.13 14.0475 17.8275C13.7458 17.525 13.3758 17.3742 12.9375 17.375C12.5 17.375 12.1304 17.5263 11.8287 17.8288C11.5271 18.1313 11.3758 18.5008 11.375 18.9375C11.375 19.375 11.5262 19.745 11.8287 20.0475C12.1312 20.35 12.5008 20.5008 12.9375 20.5ZM11.8125 15.6875H14.125C14.125 15 14.2033 14.4583 14.36 14.0625C14.5167 13.6667 14.9592 13.125 15.6875 12.4375C16.2292 11.8958 16.6562 11.38 16.9688 10.89C17.2812 10.4 17.4375 9.81167 17.4375 9.125C17.4375 7.95833 17.0104 7.0625 16.1562 6.4375C15.3021 5.8125 14.2917 5.5 13.125 5.5C11.9375 5.5 10.9737 5.8125 10.2337 6.4375C9.49375 7.0625 8.97833 7.8125 8.6875 8.6875L10.75 9.5C10.8542 9.125 11.0887 8.71875 11.4537 8.28125C11.8187 7.84375 12.3758 7.625 13.125 7.625C13.7917 7.625 14.2917 7.8075 14.625 8.1725C14.9583 8.5375 15.125 8.93833 15.125 9.375C15.125 9.79167 15 10.1825 14.75 10.5475C14.5 10.9125 14.1875 11.2508 13.8125 11.5625C12.8958 12.375 12.3333 12.9896 12.125 13.4062C11.9167 13.8229 11.8125 14.5833 11.8125 15.6875ZM13 25.5C11.2708 25.5 9.64583 25.1717 8.125 24.515C6.60417 23.8583 5.28125 22.9679 4.15625 21.8438C3.03125 20.7188 2.14083 19.3958 1.485 17.875C0.829167 16.3542 0.500833 14.7292 0.5 13C0.5 11.2708 0.828333 9.64583 1.485 8.125C2.14167 6.60417 3.03208 5.28125 4.15625 4.15625C5.28125 3.03125 6.60417 2.14083 8.125 1.485C9.64583 0.829167 11.2708 0.500833 13 0.5C14.7292 0.5 16.3542 0.828333 17.875 1.485C19.3958 2.14167 20.7188 3.03208 21.8438 4.15625C22.9688 5.28125 23.8596 6.60417 24.5162 8.125C25.1729 9.64583 25.5008 11.2708 25.5 13C25.5 14.7292 25.1717 16.3542 24.515 17.875C23.8583 19.3958 22.9679 20.7188 21.8438 21.8438C20.7188 22.9688 19.3958 23.8596 17.875 24.5162C16.3542 25.1729 14.7292 25.5008 13 25.5ZM13 23C15.7917 23 18.1562 22.0312 20.0938 20.0938C22.0312 18.1562 23 15.7917 23 13C23 10.2083 22.0312 7.84375 20.0938 5.90625C18.1562 3.96875 15.7917 3 13 3C10.2083 3 7.84375 3.96875 5.90625 5.90625C3.96875 7.84375 3 10.2083 3 13C3 15.7917 3.96875 18.1562 5.90625 20.0938C7.84375 22.0312 10.2083 23 13 23Z" fill="black"/>
</svg>
